<svg width="234" height="485" viewBox="0 0 234 485" fill="none" xmlns="http://www.w3.org/2000/svg">
<path d="M134.137 356.625C134.137 356.625 134.137 424.882 149.803 442.785C149.803 442.785 153.16 451.737 154.279 455.094C154.904 457.005 155.652 458.873 156.517 460.689V465.164C156.517 465.164 186.729 461.808 190.086 453.975L184.491 447.261C184.491 447.261 183.372 446.142 184.491 442.785C184.682 442.42 184.772 442.009 184.75 441.597C184.729 441.185 184.596 440.786 184.367 440.443C184.138 440.099 183.821 439.824 183.449 439.646C183.077 439.467 182.664 439.392 182.253 439.428L174.42 421.525L175.539 347.673L169.944 245.847L121.829 243.609L134.137 356.625Z" fill="#2F2E41"/>
<path d="M158.754 458.451C158.754 458.451 150.922 481.949 158.754 483.068C166.587 484.187 234.844 485.306 233.725 476.354C232.606 467.402 210.227 468.521 210.227 468.521L186.729 453.975L158.754 458.451Z" fill="#2F2E41"/>
<path d="M89.3784 245.847C89.3784 245.847 87.1405 260.393 96.0922 276.059C105.044 291.725 99.4491 344.316 99.4491 344.316L20.0024 413.692C20.0024 413.692 35.668 440.547 41.2628 439.428C46.8576 438.309 135.256 366.695 135.256 366.695L169.944 250.323L89.3784 245.847Z" fill="#2F2E41"/>
<path d="M21.0944 410.727C21.0944 410.727 -2.94633 416.691 0.301811 423.906C3.54995 431.121 39.146 489.372 46.1079 483.634C53.0698 477.897 40.144 459.594 40.144 459.594L39.8507 431.959L21.0944 410.727Z" fill="#2F2E41"/>
<path d="M133.018 63.4553C147.232 63.4553 158.754 51.9328 158.754 37.7191C158.754 23.5054 147.232 11.9828 133.018 11.9828C118.805 11.9828 107.282 23.5054 107.282 37.7191C107.282 51.9328 118.805 63.4553 133.018 63.4553Z" fill="#FFB8B8"/>
<path d="M112.768 46.7997L113.907 79.9174L135.562 88.4737C135.562 88.4737 137.686 54.5633 140.683 52.6833C143.681 50.8034 112.768 46.7997 112.768 46.7997Z" fill="#FFB8B8"/>
<path d="M140.851 92.5485C140.851 92.5485 110.639 62.3364 102.806 63.4553C94.9733 64.5743 94.9733 67.9312 94.9733 70.1691C94.9733 72.4071 97.2112 73.526 94.9733 74.645C92.7354 75.764 90.4975 74.645 90.4975 78.0019C90.4975 81.3588 70.3561 114.928 77.0699 151.854C83.7837 188.78 91.6164 206.683 88.2595 226.824C84.9026 246.966 87.1405 251.442 87.1405 251.442C87.1405 251.442 171.063 258.156 172.182 250.323C173.301 242.49 168.825 246.966 174.42 241.371C180.015 235.776 177.777 235.776 177.777 232.419C177.777 229.062 153.16 92.5485 140.851 92.5485Z" fill="#575A89"/>
<path d="M125.185 244.728C125.185 244.728 138.613 277.178 148.684 269.345C158.754 261.512 144.208 234.657 144.208 234.657L125.185 244.728Z" fill="#FFB8B8"/>
<path d="M92.7353 94.7864C92.7353 94.7864 66.4451 97.7963 76.2333 146.085C86.0214 194.374 124.066 250.323 124.066 250.323L149.803 238.014L116.234 171.995L124.066 130.593C124.066 130.593 128.542 91.4295 92.7353 94.7864Z" fill="#575A89"/>
<path opacity="0.2" d="M115.674 172.555L152.6 234.098L149.243 237.455L115.674 172.555Z" fill="black"/>
<path opacity="0.2" d="M96.1288 201.235L125.745 249.764H115.674L96.1288 201.235Z" fill="black"/>
<path d="M121.37 53.1839C123.453 52.0823 125.873 51.8551 128.128 51.1704C136.197 48.7207 141.602 39.5999 139.876 31.3464C139.557 30.2878 139.414 29.1841 139.452 28.0792C139.754 25.6347 142.255 24.0575 144.654 23.4974C147.052 22.9373 149.604 23.0187 151.896 22.118C155.436 20.7274 157.787 17.09 158.297 13.3214C158.663 9.50606 157.813 5.67265 155.87 2.36935L155.003 4.86237C153.682 3.7439 152.701 2.27701 152.172 0.628616C151.188 0.794076 150.262 1.20951 149.484 1.83517C148.706 2.46084 148.102 3.27576 147.729 4.2019C146.338 5.0219 146.138 1.65436 144.602 1.15756C143.926 1.07326 143.244 1.2417 142.685 1.63046C139.589 3.07407 135.993 1.83979 132.673 1.03958C126.924 -0.339531 120.93 -0.346587 115.178 1.01898C111.356 1.93056 107.573 3.51797 104.838 6.33897C102.699 8.76745 101.056 11.5909 100.001 14.6503C97.0683 22.0322 95.1305 30.0197 96.0988 37.9038C96.9052 44.3555 99.6043 50.4238 103.856 55.3432C106.07 57.8949 113.296 66.797 117.258 65.2793C122.236 63.3722 115.504 56.2852 121.37 53.1839Z" fill="#2F2E41"/>
<path opacity="0.2" d="M163.029 289.423L133.583 366.628L135.071 367.195L164.516 289.991L163.029 289.423Z" fill="black"/>
<path d="M140.692 98.6922C141.571 98.6922 142.284 97.9795 142.284 97.1004C142.284 96.2213 141.571 95.5086 140.692 95.5086C139.813 95.5086 139.1 96.2213 139.1 97.1004C139.1 97.9795 139.813 98.6922 140.692 98.6922Z" fill="#D0CDE1"/>
<path d="M154.223 141.671C154.053 141.671 153.887 141.617 153.75 141.516C153.613 141.415 153.513 141.272 153.463 141.11L139.932 97.3355C139.901 97.2357 139.89 97.1308 139.9 97.0268C139.91 96.9227 139.94 96.8216 139.989 96.7292C140.037 96.6368 140.104 96.5549 140.184 96.4881C140.265 96.4214 140.357 96.3711 140.457 96.3403C140.557 96.3094 140.662 96.2985 140.766 96.3082C140.87 96.3178 140.971 96.3479 141.064 96.3967C141.156 96.4454 141.238 96.5119 141.305 96.5923C141.371 96.6727 141.422 96.7655 141.452 96.8653L154.983 140.64C155.019 140.76 155.028 140.885 155.007 141.008C154.986 141.131 154.936 141.247 154.862 141.347C154.789 141.448 154.692 141.529 154.581 141.585C154.47 141.642 154.347 141.671 154.223 141.671V141.671Z" fill="#D0CDE1"/>
</svg>
