<svg width="107" height="552" viewBox="0 0 107 552" fill="none" xmlns="http://www.w3.org/2000/svg">
<path d="M90.6249 325.05L88.6005 395.862L67.007 478.814C67.007 478.814 71.7306 492.977 68.3566 496.349C64.9827 499.721 49.4623 505.791 49.4623 505.791L62.2834 329.096L90.6249 325.05Z" fill="#2F2E41"/>
<path d="M43.7436 496.004C43.7436 496.004 36.043 512.935 46.8238 514.474C57.6046 516.013 107.402 520.118 104.321 511.396C101.241 502.673 63.7651 494.464 63.7651 494.464L43.7436 496.004Z" fill="#2F2E41"/>
<path d="M15.0477 262.33C15.0477 262.33 23.1453 306.166 28.5437 313.585C33.9421 321.004 25.8445 374.956 25.8445 374.956C25.8445 374.956 13.6981 452.513 19.0965 464.652C24.4949 476.791 23.1453 472.745 22.4705 479.489C21.7957 486.233 20.4461 491.628 22.4705 497.698C24.4949 503.768 24.4949 503.093 25.1697 506.465C25.8445 509.837 25.1697 528.046 25.1697 528.046C25.1697 528.046 54.186 538.162 58.9095 523.325C58.9095 523.325 52.1615 513.884 54.186 506.465C56.2967 499 57.4308 491.292 57.5599 483.535V469.373L88.6006 353.375L96.0233 311.562C96.0233 311.562 93.999 269.074 86.5761 265.028C79.1533 260.981 15.0477 262.33 15.0477 262.33Z" fill="#2F2E41"/>
<path d="M27.194 524.674C27.194 524.674 17.072 546.93 31.2427 548.953C45.4135 550.976 110.869 556.371 106.82 544.906C102.771 533.441 53.511 522.651 53.511 522.651L27.194 524.674Z" fill="#2F2E41"/>
<path d="M40.0223 68.1293C25.1151 68.1293 13.0304 56.0516 13.0304 41.153C13.0304 26.2544 25.1151 14.1768 40.0223 14.1768C54.9295 14.1768 67.0142 26.2544 67.0142 41.153C67.0142 56.0516 54.9295 68.1293 40.0223 68.1293Z" fill="#FFB9B9"/>
<path d="M21.0551 53.0737L21.5576 87.5242L54.65 87.6362C54.65 87.6362 46.2515 60.6675 50.0133 55.0282C53.7752 49.3888 21.0551 53.0737 21.0551 53.0737Z" fill="#FFB9B9"/>
<path d="M70.381 106.542C70.381 106.542 46.7631 76.194 28.5436 89.0078C10.3241 101.821 3.57607 132.17 3.57607 132.17L7.6248 217.145C7.6248 217.145 17.7468 229.284 11.6736 237.377C5.60049 245.47 2.22641 243.447 6.94997 249.516C11.6735 255.586 17.0719 260.307 15.0475 262.33C13.0232 264.353 17.072 265.702 17.072 265.702L88.6005 267.725C88.6005 267.725 86.5761 265.028 92.6493 256.935C98.7224 248.842 91.2997 238.052 92.6493 234.005C93.9989 229.959 95.3485 234.68 96.0233 225.238C96.698 215.796 70.381 106.542 70.381 106.542Z" fill="#3F3D56"/>
<path d="M63.633 280.539C63.633 280.539 64.9826 297.399 75.1045 300.097C78.9002 301.108 81.7469 299.18 83.8228 296.374C85.761 293.686 86.8476 290.477 86.942 287.165C87.0365 283.852 86.1344 280.588 84.3526 277.793L81.8525 273.795L63.633 280.539Z" fill="#FFB9B9"/>
<path d="M1.21441 72.4847C1.21441 72.4847 0.539642 85.9728 1.21441 87.996C1.88917 90.0192 2.564 92.0425 1.21441 94.0657C-0.135192 96.0889 0.539636 102.833 1.88923 103.507C3.23883 104.182 -0.810021 110.251 0.539577 114.298C1.88917 118.344 3.23883 119.693 3.9136 121.042C4.58836 122.391 5.67538 124.807 5.67538 124.807C5.67538 124.807 25.5071 82.6008 41.7022 92.7168C57.8973 102.833 70.7185 106.205 70.7185 106.205C70.7185 106.205 61.9462 58.9966 1.21441 72.4847Z" fill="#3F3D56"/>
<path d="M30.5679 103.845C30.5679 103.845 8.97439 105.868 10.324 134.193C11.6736 162.518 8.29962 207.029 8.29962 207.029C8.29962 207.029 45.4135 263.679 51.4866 267.725C57.5598 271.772 58.2346 271.097 57.5598 274.469C56.8851 277.841 56.2103 280.539 58.9094 283.237C60.5029 284.84 62.3214 286.203 64.3078 287.283C64.3078 287.283 85.9013 279.865 83.8769 273.121C81.8526 266.377 72.4054 255.586 72.4054 255.586C72.4054 255.586 56.2103 229.284 55.5355 225.238C54.8607 221.191 54.8607 221.866 52.8363 219.843C50.8119 217.819 45.4135 209.726 45.4135 205.68V192.866L51.0708 124.39C51.3276 121.601 50.991 118.789 50.0831 116.139C49.1752 113.489 47.7166 111.062 45.8031 109.016C42.5915 105.658 37.7375 102.985 30.5679 103.845Z" fill="#3F3D56"/>
<path d="M57.4294 20.3495C59.1884 20.8365 61.041 20.8783 62.8202 20.4711C64.5995 20.064 66.2493 19.2206 67.6211 18.0172C70.2588 15.5123 71.1454 11.1721 69.2685 8.05672C67.6478 5.36645 64.4957 4.05073 61.4962 3.11541C54.8799 1.05432 47.9899 0.00400326 41.0596 2.64592e-06C37.7556 -0.000996811 34.3056 0.280478 31.4782 1.98905C30.0792 2.83444 28.8944 3.99551 27.5113 4.86656C24.9681 6.46822 21.9143 7.00046 19.122 8.11312C16.2669 9.27289 13.6943 11.032 11.5784 13.2715C9.46243 15.511 7.85247 18.1785 6.85739 21.0937C6.21691 23.071 5.81673 25.118 5.66545 27.1908C5.20912 32.8686 6.21304 38.5688 8.58182 43.7498C12.347 51.955 19.5134 58.8542 20.5259 67.8243C24.3835 64.5878 25.5143 59.1589 28.5023 55.1066C30.7266 52.1101 33.9019 49.9561 37.5094 48.9965C38.5176 48.8632 39.4652 48.4399 40.237 47.778C40.7563 47.0605 41.0532 46.2062 41.0905 45.3215L42.9425 31.9945C43.3194 29.2822 43.8286 26.3182 45.9111 24.5388C47.2173 23.5673 48.7307 22.9109 50.333 22.6211C54.1226 21.6793 57.9832 21.0501 61.8758 20.74" fill="#2F2E41"/>
<path opacity="0.1" d="M11.5816 216.663L49.4623 265.793C49.4623 265.793 14.5817 236.652 11.5816 216.663Z" fill="black"/>
<path opacity="0.1" d="M47.9423 162.267L47.5833 208.667L69.5841 241.649L51.5835 204.669L47.9423 162.267Z" fill="black"/>
</svg>
