<svg width="185" height="484" viewBox="0 0 185 484" fill="none" xmlns="http://www.w3.org/2000/svg">
<path d="M42.7268 413.006L38.5548 463.901H54.4078L62.7508 413.006H42.7268Z" fill="#FFB8B8"/>
<path d="M144.518 413.006L140.346 463.901H156.199L164.542 413.006H144.518Z" fill="#FFB8B8"/>
<path d="M151.816 133.314L150.21 157.586L141.172 230.927C141.172 230.927 129.794 265.48 146.156 261.802C162.518 258.123 157.268 229.095 157.268 229.095L167.885 160.505L172.129 136.235L151.816 133.314Z" fill="#FFB8B8"/>
<path d="M165.794 98.8716L173.303 145.596L147.438 143.093L154.947 97.2026L165.794 98.8716Z" fill="#575A89"/>
<path d="M130.334 56.7369C143.236 56.7369 153.696 46.2774 153.696 33.375C153.696 20.4726 143.236 10.0131 130.334 10.0131C117.431 10.0131 106.972 20.4726 106.972 33.375C106.972 46.2774 117.431 56.7369 130.334 56.7369Z" fill="#FFB8B8"/>
<path d="M145.769 41.3013C145.769 41.3013 153.278 57.9883 157.45 67.1662C161.622 76.3441 160.787 78.0128 160.787 78.0128H126.579C126.579 78.0128 129.916 54.6509 126.579 52.1479C123.242 49.6448 145.769 41.3013 145.769 41.3013Z" fill="#FFB8B8"/>
<path d="M139.929 162.282C139.929 162.282 186.652 104.712 163.291 74.6754C164.582 73.8702 155.209 63.0487 149.107 65.4975C148.012 65.937 124.91 70.5036 121.573 73.841C118.236 77.1785 103.634 94.2827 103.634 94.2827C103.634 94.2827 95.2909 104.295 91.9535 125.988C88.6161 147.681 81.524 158.945 81.524 158.945" fill="#575A89"/>
<path d="M81.524 158.945L79.8553 172.295L45.2297 302.871L27.2911 418.429C35.8764 432.481 54.4518 434.725 82.3584 425.938L87.7817 312.049L112.812 249.472L123.242 425.938C145.919 433.475 166.379 431.864 184.984 422.6L153.696 236.123C153.696 236.123 169.131 209.006 141.597 173.963L139.929 162.282" fill="#2F2E41"/>
<path d="M106.555 128.908L97.3768 151.436L65.6714 218.184C65.6714 218.184 43.9782 247.386 60.6652 249.055C77.3523 250.724 81.524 221.521 81.524 221.521L113.229 159.779L124.91 138.086L106.555 128.908Z" fill="#FFB8B8"/>
<path d="M57.7449 444.711V458.18C57.7449 458.18 67.3654 480.307 60.6311 482.231C53.8967 484.155 35.6178 482.231 32.7317 482.231C29.8455 482.231 -0.939973 485.117 0.0220769 476.458C0.984127 467.8 21.1871 462.028 21.1871 462.028L39.466 444.711H57.7449Z" fill="#2F2E41"/>
<path d="M160.37 444.711V458.18C160.37 458.18 169.991 480.307 163.257 482.231C156.522 484.155 138.243 482.231 135.357 482.231C132.471 482.231 101.686 485.117 102.648 476.458C103.61 467.8 123.813 462.028 123.813 462.028L142.092 444.711H160.37Z" fill="#2F2E41"/>
<path d="M134.923 71.338C134.923 71.338 118.236 75.5097 110.726 102.209C103.217 128.908 101.548 133.08 101.548 133.08L126.579 144.761L144.935 108.049C144.935 108.049 155.781 76.3441 134.923 71.338Z" fill="#575A89"/>
<path d="M105.375 26.2233C105.375 26.2233 100.81 -9.30419 138.058 2.34609C138.058 2.34609 164.661 -2.53512 173.385 30.7408L182.219 65.6222L177.914 63.2789L175.907 67.6662L168.93 69.4329L165.945 63.5076L164.501 70.7031L107.361 76.3995C107.361 76.3995 132.953 61.2647 133.359 34.1397L128.484 39.2909L105.375 26.2233Z" fill="#2F2E41"/>
<path opacity="0.2" d="M140.346 105.964L122.373 142.799L126.162 144.344L140.346 105.964Z" fill="black"/>
<path opacity="0.2" d="M119.487 100.958L101.966 133.498H98.6278L119.487 100.958Z" fill="black"/>
<path opacity="0.2" d="M165.649 117.109L152.801 143.612H160.856L165.649 117.109Z" fill="black"/>
</svg>
