<svg width="943" height="807" viewBox="0 0 943 807" fill="none" xmlns="http://www.w3.org/2000/svg">
<g clip-path="url(#clip0)">
<path d="M706.312 632.771C705.967 645.6 703.809 658.316 699.902 670.546C699.812 670.829 699.719 671.109 699.625 671.393H675.702C675.727 671.139 675.753 670.855 675.778 670.546C677.374 652.285 686.57 541.148 675.574 522.142C676.536 523.684 708.167 574.75 706.312 632.771Z" fill="#E6E6E6"/>
<path d="M704.517 670.546C704.317 670.829 704.109 671.113 703.896 671.393H685.949C686.085 671.151 686.243 670.868 686.426 670.546C689.391 665.217 698.166 649.286 706.312 632.771C715.066 615.024 723.098 596.602 722.421 589.935C722.63 591.439 728.687 637.278 704.517 670.546Z" fill="#E6E6E6"/>
<path d="M770.979 669.769H83.0596V672.01H770.979V669.769Z" fill="#E6E6E6"/>
<path d="M523.393 739.739L526.734 712.287L621.139 688.162L610.279 655.718C617.844 634.11 631.126 623.518 655.392 634.088L697.134 659.909C701.19 662.418 704.495 665.967 706.702 670.184C708.909 674.4 709.938 679.131 709.68 683.879V683.879C709.425 688.646 707.882 693.256 705.214 697.223C702.546 701.189 698.851 704.365 694.521 706.414C647.792 728.47 588.235 736.91 523.393 739.739Z" fill="#FFB8B8"/>
<path d="M529.241 748.058L500 743.899L472.651 749.457C470.975 749.797 469.245 749.771 467.581 749.381C465.916 748.991 464.357 748.245 463.01 747.196C461.663 746.146 460.561 744.818 459.78 743.303C458.999 741.788 458.558 740.123 458.486 738.421V738.421C458.407 736.518 458.792 734.625 459.61 732.903C460.428 731.181 461.653 729.683 463.18 728.537L506.037 696.385C509.713 693.627 514.255 692.265 518.848 692.541C523.442 692.818 527.786 694.716 531.101 697.894L541.772 708.127C534.136 712.845 528.457 719.923 525.063 729.757C532.403 733.774 533.795 739.875 529.241 748.058Z" fill="#2F2E41"/>
<path d="M557.168 459.837C572.103 459.837 584.21 447.781 584.21 432.91C584.21 418.038 572.103 405.983 557.168 405.983C542.233 405.983 530.126 418.038 530.126 432.91C530.126 447.781 542.233 459.837 557.168 459.837Z" fill="#FFB8B8"/>
<path d="M599.418 486.011L538.848 511.384C543.771 486.772 546.224 464.352 538.848 450.655L577.696 446.08C575.768 456.606 585.597 470.702 599.418 486.011Z" fill="#FFB8B8"/>
<path d="M496.659 738.907L474.102 737.244C460.283 679.864 453.208 625.628 456.296 576.131C456.732 568.905 459.963 562.129 465.309 557.223C470.655 552.318 477.701 549.665 484.969 549.821C491.953 549.979 498.627 552.724 503.688 557.519L532.858 585.16C545.866 597.391 555.964 612.362 562.414 628.979C570.675 650.524 567.709 662.603 547.987 660.552C535.663 659.184 524.329 653.183 516.298 643.776L494.988 619.114L496.659 738.907Z" fill="#FFB8B8"/>
<path d="M479.19 807.092C476.234 806.9 473.361 806.032 470.796 804.557C468.23 803.082 466.04 801.038 464.395 798.584C462.75 796.13 461.695 793.332 461.311 790.407C460.926 787.482 461.224 784.508 462.18 781.715L466.583 768.856L469.924 736.412C475.072 725.952 482.362 727.517 490.81 735.58C496.181 735.055 497.334 729.707 496.658 722.269L513.595 744.972C515.044 746.915 515.944 749.209 516.2 751.616C516.456 754.023 516.06 756.454 515.051 758.656L498.006 795.887C496.382 799.435 493.712 802.407 490.351 804.408C486.99 806.41 483.098 807.345 479.19 807.092V807.092Z" fill="#2F2E41"/>
<path d="M692.57 656.966C661.658 674.435 651.97 674.942 621.139 687.33L594.405 672.356C563.008 683.916 540.983 668.069 517.127 644.487C532.738 618.595 525.834 584.947 535.506 585.422L651.215 621.61L656.228 634.088L692.57 656.966Z" fill="#2F2E41"/>
<path d="M655.392 629.929C614.537 647.538 570.547 628.894 533 587.918L508.139 487.939C507.845 486.837 507.781 485.688 507.95 484.561C508.119 483.434 508.519 482.353 509.124 481.386C509.728 480.419 510.526 479.585 511.467 478.936C512.407 478.287 513.472 477.837 514.594 477.614L543.443 471.869L557.646 494.33L586.051 469.373L616.217 479.193C620.227 480.499 623.807 482.865 626.572 486.039C629.337 489.213 631.185 493.075 631.917 497.213L655.392 629.929Z" fill="#6C63FF"/>
<path opacity="0.2" d="M590.498 714.687C588.293 713.85 586.322 712.5 584.75 710.748C583.178 708.996 582.05 706.894 581.462 704.619C580.874 702.343 580.843 699.961 581.371 697.671C581.899 695.381 582.971 693.25 584.497 691.458L603.595 669.028L616.962 676.515L610.079 704.458C609.581 706.48 608.657 708.374 607.368 710.013C606.08 711.653 604.456 713.001 602.604 713.968C600.753 714.935 598.716 715.499 596.629 715.623C594.542 715.747 592.452 715.428 590.498 714.687Z" fill="black"/>
<path d="M590.498 711.359C588.293 710.523 586.322 709.172 584.75 707.42C583.178 705.668 582.05 703.566 581.462 701.291C580.874 699.016 580.843 696.633 581.371 694.343C581.899 692.053 582.971 689.923 584.497 688.131L603.595 665.701L616.962 673.188L610.079 701.131C609.581 703.153 608.657 705.046 607.368 706.686C606.08 708.325 604.456 709.673 602.604 710.64C600.753 711.607 598.716 712.172 596.629 712.296C594.542 712.42 592.452 712.1 590.498 711.359V711.359Z" fill="#FFB8B8"/>
<path d="M620.304 679.843L600.253 666.532L629.494 589.166L618.633 480.188L628.54 486.353C633.857 489.662 638.444 494.013 642.022 499.14C645.6 504.267 648.094 510.065 649.354 516.181L665.418 594.157C658.389 630.099 646.674 661.723 620.304 679.843Z" fill="#6C63FF"/>
<path opacity="0.2" d="M608.19 556.306L618.216 606.22L609.97 635.412L608.19 556.306Z" fill="black"/>
<path d="M530.722 430.601C530.722 430.601 515.138 379.818 562.765 390.468C570.152 392.12 576.534 396.396 581.611 401.989C582.066 402.478 582.623 402.862 583.243 403.114C583.862 403.366 584.53 403.48 585.199 403.448C592.807 403.448 597.506 430.52 582.29 442.425C582.29 442.425 585.395 426.405 579.751 420.947C578.737 420.023 577.887 418.934 577.239 417.726C573.566 410.348 561.219 407.926 552.703 408.554C548.356 408.875 547.976 416.423 543.163 415.369C532.212 412.97 528.717 425.601 530.722 430.601Z" fill="#2F2E41"/>
<path d="M578.658 505.975L578.343 508.274L576.397 522.462L573.21 545.696L572.412 551.513C572.351 551.957 572.131 552.364 571.792 552.659C571.452 552.954 571.018 553.116 570.568 553.116H549.314C548.865 553.116 548.431 552.954 548.092 552.661C547.753 552.367 547.532 551.961 547.47 551.518L546.658 545.696L543.417 522.462L541.437 508.264L541.119 505.979C541.082 505.717 541.102 505.449 541.178 505.195C541.254 504.942 541.383 504.707 541.558 504.507C541.733 504.307 541.948 504.147 542.191 504.037C542.433 503.927 542.696 503.87 542.962 503.87H576.814C577.079 503.87 577.342 503.927 577.584 504.037C577.826 504.146 578.041 504.306 578.216 504.505C578.391 504.705 578.52 504.939 578.597 505.192C578.673 505.446 578.694 505.713 578.658 505.975V505.975Z" fill="#E6E6E6"/>
<path d="M545.204 497.715H574.681C574.925 497.715 575.168 497.763 575.393 497.856C575.619 497.949 575.824 498.085 575.997 498.258C576.17 498.43 576.307 498.634 576.401 498.859C576.494 499.084 576.542 499.325 576.542 499.568V502.017C576.542 502.508 576.346 502.98 575.997 503.328C575.648 503.675 575.175 503.87 574.681 503.87H545.204C544.711 503.87 544.237 503.675 543.888 503.328C543.539 502.98 543.343 502.508 543.343 502.017V499.568C543.343 499.325 543.391 499.084 543.485 498.859C543.578 498.634 543.715 498.43 543.888 498.258C544.061 498.085 544.266 497.949 544.492 497.856C544.718 497.763 544.96 497.715 545.204 497.715V497.715Z" fill="#3F3D56"/>
<path d="M581.321 506.948C567.111 508.493 552.774 508.493 538.564 506.948C538.32 506.948 538.078 506.9 537.852 506.807C537.626 506.714 537.421 506.578 537.248 506.405C537.075 506.233 536.938 506.029 536.845 505.804C536.751 505.579 536.703 505.338 536.703 505.095V502.646C536.703 502.403 536.751 502.162 536.845 501.937C536.938 501.712 537.075 501.508 537.248 501.336C537.421 501.163 537.626 501.027 537.852 500.934C538.078 500.841 538.32 500.793 538.564 500.793C552.763 502.531 567.122 502.531 581.321 500.793C581.814 500.793 582.288 500.988 582.637 501.336C582.986 501.683 583.182 502.155 583.182 502.646V505.095C583.182 505.586 582.986 506.058 582.637 506.405C582.288 506.753 581.814 506.948 581.321 506.948V506.948Z" fill="#3F3D56"/>
<path d="M559.08 535.393C563.517 535.393 567.114 531.811 567.114 527.393C567.114 522.974 563.517 519.393 559.08 519.393C554.643 519.393 551.046 522.974 551.046 527.393C551.046 531.811 554.643 535.393 559.08 535.393Z" fill="white"/>
<path d="M579.734 544.223C579.978 546.56 579.656 548.921 578.794 551.108C577.932 553.296 576.556 555.245 574.782 556.793C573.007 558.341 570.885 559.443 568.594 560.006C566.303 560.569 563.91 560.576 561.616 560.028L532.9 553.163L533.587 537.906L561.739 531.429C563.776 530.961 565.89 530.928 567.94 531.335C569.991 531.741 571.931 532.577 573.633 533.787C575.335 534.997 576.758 536.553 577.81 538.352C578.862 540.151 579.518 542.152 579.734 544.223V544.223Z" fill="#FFB8B8"/>
<path d="M540.937 555.89L463.439 557.819C460.642 557.889 457.863 557.35 455.296 556.241C452.729 555.132 450.435 553.479 448.575 551.397C446.716 549.314 445.334 546.854 444.527 544.185C443.72 541.517 443.507 538.706 443.903 535.948V535.948C444.523 531.625 446.606 527.644 449.808 524.661L486.297 490.672C493.064 484.368 501.496 480.116 510.604 478.416L523.392 476.028L530.911 532.597L487.469 527.606L538.43 533.429L540.937 555.89Z" fill="#6C63FF"/>
<path d="M438.841 721.885H240.994C239.234 721.885 237.547 721.189 236.303 719.951C235.059 718.712 234.36 717.031 234.36 715.28V715.28C306.079 706.98 376.451 706.98 445.475 715.28C445.475 717.031 444.776 718.712 443.531 719.951C442.287 721.189 440.6 721.885 438.841 721.885Z" fill="#2F2E41"/>
<path d="M445.475 715.668L234.36 715.279L258.827 674.285L258.944 674.091V583.743C258.944 582.647 259.161 581.561 259.583 580.547C260.004 579.534 260.622 578.614 261.4 577.838C262.179 577.063 263.104 576.448 264.121 576.028C265.139 575.609 266.229 575.393 267.33 575.393H411.333C412.435 575.393 413.525 575.609 414.543 576.028C415.56 576.448 416.485 577.063 417.263 577.838C418.042 578.614 418.66 579.534 419.081 580.547C419.503 581.561 419.719 582.647 419.719 583.743V674.712L445.475 715.668Z" fill="#3F3D56"/>
<path d="M267.139 581.221C266.415 581.222 265.721 581.509 265.209 582.019C264.697 582.529 264.409 583.22 264.408 583.941V666.319C264.409 667.04 264.697 667.732 265.209 668.242C265.721 668.751 266.415 669.038 267.139 669.039H412.695C413.42 669.038 414.114 668.751 414.626 668.241C415.138 667.732 415.426 667.04 415.427 666.319V583.941C415.426 583.22 415.138 582.529 414.626 582.019C414.114 581.509 413.42 581.222 412.695 581.221L267.139 581.221Z" fill="white"/>
<path d="M268.096 679.919C267.872 679.92 267.653 679.984 267.465 680.104C267.276 680.224 267.126 680.395 267.032 680.598L259.493 696.918C259.411 697.096 259.375 697.291 259.389 697.486C259.402 697.681 259.465 697.869 259.571 698.034C259.677 698.199 259.823 698.334 259.995 698.428C260.167 698.522 260.36 698.571 260.557 698.571H419.102C419.301 698.571 419.497 698.52 419.672 698.423C419.846 698.327 419.993 698.187 420.097 698.018C420.202 697.849 420.262 697.656 420.271 697.458C420.28 697.259 420.238 697.061 420.149 696.884L411.954 680.564C411.857 680.37 411.708 680.206 411.523 680.093C411.338 679.979 411.124 679.919 410.907 679.919L268.096 679.919Z" fill="#2F2E41"/>
<path d="M339.332 579.861C340.302 579.861 341.088 579.078 341.088 578.113C341.088 577.147 340.302 576.364 339.332 576.364C338.362 576.364 337.576 577.147 337.576 578.113C337.576 579.078 338.362 579.861 339.332 579.861Z" fill="white"/>
<path d="M323.748 701.679C323.491 701.68 323.241 701.764 323.037 701.92C322.832 702.076 322.685 702.295 322.618 702.542L320.727 709.536C320.68 709.709 320.674 709.89 320.709 710.066C320.744 710.241 320.819 710.406 320.928 710.549C321.037 710.691 321.178 710.806 321.339 710.885C321.5 710.964 321.677 711.005 321.857 711.005H357.822C358.009 711.005 358.193 710.961 358.359 710.876C358.524 710.79 358.667 710.667 358.776 710.516C358.884 710.364 358.954 710.189 358.981 710.005C359.007 709.821 358.989 709.634 358.928 709.458L356.497 702.464C356.417 702.235 356.268 702.036 356.069 701.896C355.871 701.755 355.634 701.68 355.391 701.679H323.748Z" fill="#2F2E41"/>
<path d="M419.719 672.73V674.285H258.828L258.948 674.09V672.73H419.719Z" fill="#2F2E41"/>
<path d="M190.659 620.891C191.101 637.334 193.867 653.633 198.875 669.307C198.99 669.671 199.11 670.029 199.23 670.393H229.892C229.86 670.067 229.827 669.703 229.794 669.307C227.75 645.902 215.962 503.456 230.056 479.096C228.824 481.073 188.282 546.525 190.659 620.891Z" fill="#E6E6E6"/>
<path d="M192.96 669.307C193.216 669.671 193.483 670.034 193.756 670.393H216.758C216.584 670.083 216.382 669.72 216.148 669.307C212.347 662.477 201.1 642.059 190.659 620.891C179.438 598.144 169.145 574.533 170.012 565.988C169.744 567.915 161.98 626.668 192.96 669.307Z" fill="#E6E6E6"/>
<path d="M0 625.384C0 625.384 68.0776 603.098 131.492 625.384Z" fill="#E6E6E6"/>
<path d="M304.618 614.825C318.109 614.685 331.597 614.445 345.087 614.263C349.584 614.202 354.081 614.148 358.578 614.103C362.453 614.062 362.463 608.062 358.578 608.102C345.088 608.242 331.6 608.482 318.11 608.665C313.613 608.726 309.116 608.779 304.618 608.825C300.743 608.865 300.734 614.865 304.618 614.825Z" fill="#6C63FF"/>
<path d="M304.618 628.825L359.14 628.263L374.646 628.103C378.521 628.063 378.531 622.062 374.646 622.102L320.125 622.665L304.618 622.825C300.743 622.865 300.734 628.865 304.618 628.825Z" fill="#6C63FF"/>
<path d="M304.618 642.825L359.14 642.263L374.646 642.103C378.521 642.063 378.531 636.062 374.646 636.102L320.125 636.665L304.618 636.825C300.743 636.865 300.734 642.865 304.618 642.825Z" fill="#6C63FF"/>
<path d="M903.85 533.795C904.29 550.237 907.044 566.536 912.031 582.21C912.145 582.574 912.265 582.932 912.384 583.296H942.917C942.884 582.971 942.852 582.607 942.819 582.21C940.783 558.806 929.046 416.36 943.08 392C941.853 393.976 901.483 459.428 903.85 533.795Z" fill="#E6E6E6"/>
<path d="M906.141 582.21C906.396 582.574 906.662 582.938 906.934 583.296H929.839C929.665 582.987 929.464 582.623 929.231 582.21C925.447 575.381 914.247 554.962 903.85 533.795C892.677 511.047 882.427 487.436 883.29 478.891C883.024 480.818 875.293 539.571 906.141 582.21Z" fill="#E6E6E6"/>
<path d="M714 538.288C714 538.288 781.789 516.001 844.934 538.288Z" fill="#E6E6E6"/>
</g>
<defs>
<clipPath id="clip0">
<rect width="942.76" height="806.748" fill="white"/>
</clipPath>
</defs>
</svg>
