<svg width="943" height="807" viewBox="0 0 943 807" fill="none" xmlns="http://www.w3.org/2000/svg">
<g clip-path="url(#clip0)">
<path d="M878.093 632.387C877.748 645.216 875.59 657.932 871.682 670.161C871.593 670.445 871.499 670.725 871.406 671.008H847.483C847.508 670.754 847.534 670.47 847.559 670.161C849.154 651.901 858.351 540.764 847.355 521.758C848.316 523.3 879.948 574.366 878.093 632.387Z" fill="#E6E6E6"/>
<path d="M876.298 670.161C876.098 670.445 875.889 670.729 875.677 671.008H857.73C857.866 670.767 858.023 670.483 858.206 670.161C861.171 664.833 869.947 648.902 878.093 632.387C886.847 614.639 894.878 596.218 894.202 589.551C894.41 591.055 900.468 636.894 876.298 670.161Z" fill="#E6E6E6"/>
<path d="M942.76 669.385H254.841V671.625H942.76V669.385Z" fill="#E6E6E6"/>
<path d="M695.173 739.355L698.515 711.902L792.92 687.777L782.059 655.333C789.625 633.726 802.907 623.133 827.173 633.704L868.914 659.524C872.971 662.034 876.276 665.582 878.483 669.799C880.69 674.016 881.719 678.746 881.461 683.495V683.495C881.206 688.262 879.663 692.872 876.995 696.839C874.326 700.805 870.632 703.98 866.302 706.03C819.573 728.086 760.016 736.525 695.173 739.355Z" fill="#FFB8B8"/>
<path d="M701.021 747.674L671.781 743.515L644.432 749.072C642.756 749.413 641.026 749.387 639.362 748.997C637.697 748.606 636.137 747.861 634.79 746.811C633.444 745.762 632.342 744.434 631.561 742.919C630.78 741.404 630.338 739.738 630.267 738.037V738.037C630.187 736.134 630.573 734.24 631.391 732.519C632.208 730.797 633.434 729.299 634.961 728.153L677.818 696C681.493 693.243 686.035 691.88 690.629 692.157C695.222 692.434 699.567 694.332 702.881 697.51L713.553 707.743C705.916 712.46 700.238 719.539 696.844 729.372C704.183 733.39 705.576 739.49 701.021 747.674Z" fill="#2F2E41"/>
<path d="M728.949 459.453C743.884 459.453 755.991 447.397 755.991 432.526C755.991 417.654 743.884 405.598 728.949 405.598C714.014 405.598 701.907 417.654 701.907 432.526C701.907 447.397 714.014 459.453 728.949 459.453Z" fill="#FFB8B8"/>
<path d="M771.198 485.626L710.629 510.999C715.552 486.388 718.005 463.968 710.629 450.271L749.477 445.695C747.549 456.221 757.377 470.318 771.198 485.626Z" fill="#FFB8B8"/>
<path d="M668.439 738.523L645.882 736.859C632.064 679.48 624.989 625.244 628.077 575.747C628.513 568.521 631.743 561.744 637.089 556.839C642.436 551.933 649.482 549.281 656.75 549.437C663.734 549.595 670.408 552.34 675.469 557.135L704.639 584.776C717.647 597.006 727.745 611.978 734.194 628.595C742.456 650.14 739.49 662.219 719.768 660.167C707.444 658.799 696.11 652.799 688.079 643.391L666.768 618.73L668.439 738.523Z" fill="#FFB8B8"/>
<path d="M650.971 806.707C648.015 806.515 645.142 805.648 642.576 804.173C640.011 802.697 637.82 800.654 636.176 798.2C634.531 795.746 633.475 792.948 633.091 790.023C632.707 787.097 633.005 784.123 633.961 781.331L638.363 768.471L641.705 736.027C646.853 725.568 654.143 727.132 662.591 735.195C667.962 734.67 669.115 729.323 668.439 721.885L685.376 744.587C686.825 746.53 687.725 748.825 687.981 751.232C688.237 753.638 687.84 756.07 686.832 758.272L669.787 795.503C668.163 799.051 665.493 802.023 662.132 804.024C658.771 806.025 654.879 806.961 650.971 806.707V806.707Z" fill="#2F2E41"/>
<path d="M864.35 656.581C833.439 674.051 823.751 674.558 792.92 686.946L766.186 671.971C734.788 683.532 712.764 667.684 688.907 644.103C704.519 618.21 697.615 584.563 707.287 585.038L822.996 621.226L828.009 633.704L864.35 656.581Z" fill="#2F2E41"/>
<path d="M827.173 629.545C786.317 647.154 742.327 628.51 704.781 587.534L679.919 487.554C679.626 486.453 679.561 485.304 679.731 484.177C679.9 483.05 680.3 481.969 680.904 481.002C681.509 480.034 682.307 479.201 683.247 478.552C684.188 477.903 685.252 477.453 686.375 477.23L715.224 471.484L729.426 493.945L757.831 468.989L787.997 478.809C792.008 480.114 795.588 482.481 798.353 485.655C801.118 488.829 802.965 492.691 803.697 496.829L827.173 629.545Z" fill="#6C63FF"/>
<path opacity="0.2" d="M762.279 714.303C760.074 713.466 758.103 712.115 756.531 710.363C754.958 708.612 753.831 706.51 753.243 704.234C752.655 701.959 752.624 699.576 753.152 697.286C753.68 694.996 754.752 692.866 756.278 691.074L775.376 668.644L788.743 676.131L781.86 704.074C781.362 706.096 780.438 707.989 779.149 709.629C777.86 711.268 776.236 712.616 774.385 713.583C772.534 714.551 770.497 715.115 768.41 715.239C766.323 715.363 764.233 715.044 762.279 714.303Z" fill="black"/>
<path d="M762.279 710.975C760.074 710.139 758.103 708.788 756.531 707.036C754.958 705.284 753.831 703.182 753.243 700.907C752.655 698.631 752.624 696.249 753.152 693.959C753.68 691.669 754.752 689.538 756.278 687.746L775.376 665.316L788.743 672.803L781.86 700.746C781.362 702.768 780.438 704.662 779.149 706.301C777.86 707.941 776.236 709.289 774.385 710.256C772.533 711.223 770.497 711.787 768.41 711.911C766.323 712.035 764.233 711.716 762.279 710.975V710.975Z" fill="#FFB8B8"/>
<path d="M792.085 679.458L772.034 666.148L801.274 588.782L790.414 479.803L800.321 485.969C805.638 489.278 810.225 493.628 813.803 498.756C817.381 503.883 819.875 509.68 821.135 515.797L837.198 593.773C830.17 629.715 818.455 661.338 792.085 679.458Z" fill="#6C63FF"/>
<path opacity="0.2" d="M779.971 555.922L789.996 605.836L781.75 635.028L779.971 555.922Z" fill="black"/>
<path d="M702.502 430.217C702.502 430.217 686.919 379.433 734.546 390.084C741.933 391.736 748.315 396.012 753.392 401.605C753.847 402.094 754.404 402.478 755.023 402.73C755.643 402.982 756.311 403.096 756.98 403.064C764.588 403.064 769.287 430.136 754.071 442.041C754.071 442.041 757.176 426.021 751.532 420.562C750.517 419.639 749.668 418.55 749.02 417.342C745.347 409.964 733 407.542 724.484 408.17C720.137 408.491 719.757 416.039 714.944 414.984C703.993 412.585 700.498 425.217 702.502 430.217Z" fill="#2F2E41"/>
<path d="M750.439 505.59L750.124 507.89L748.178 522.077L744.991 545.312L744.193 551.129C744.132 551.573 743.911 551.98 743.572 552.275C743.233 552.569 742.798 552.732 742.348 552.732H721.095C720.646 552.732 720.211 552.57 719.872 552.276C719.533 551.983 719.313 551.577 719.251 551.133L718.439 545.312L715.198 522.077L713.218 507.879L712.899 505.595C712.863 505.332 712.883 505.065 712.959 504.811C713.034 504.557 713.164 504.322 713.339 504.123C713.513 503.923 713.729 503.762 713.971 503.653C714.213 503.543 714.476 503.486 714.742 503.486H748.594C748.86 503.486 749.123 503.543 749.365 503.652C749.606 503.762 749.822 503.922 749.997 504.121C750.171 504.32 750.301 504.555 750.377 504.808C750.454 505.061 750.475 505.328 750.439 505.59V505.59Z" fill="#E6E6E6"/>
<path d="M716.985 497.33H746.462C746.706 497.33 746.948 497.378 747.174 497.471C747.4 497.565 747.605 497.701 747.778 497.873C747.951 498.045 748.088 498.25 748.182 498.475C748.275 498.699 748.323 498.941 748.323 499.184V501.633C748.323 502.124 748.127 502.596 747.778 502.943C747.429 503.291 746.956 503.486 746.462 503.486H716.985C716.492 503.486 716.018 503.291 715.669 502.943C715.32 502.596 715.124 502.124 715.124 501.633V499.184C715.124 498.94 715.172 498.699 715.265 498.475C715.359 498.25 715.496 498.045 715.669 497.873C715.842 497.701 716.047 497.565 716.273 497.471C716.499 497.378 716.741 497.33 716.985 497.33V497.33Z" fill="#3F3D56"/>
<path d="M753.102 506.564C738.892 508.108 724.555 508.108 710.345 506.564C710.101 506.564 709.859 506.516 709.633 506.423C709.407 506.33 709.202 506.193 709.029 506.021C708.856 505.849 708.719 505.645 708.626 505.42C708.532 505.195 708.484 504.954 708.484 504.711V502.262C708.484 502.018 708.532 501.777 708.626 501.552C708.719 501.328 708.856 501.123 709.029 500.951C709.202 500.779 709.407 500.643 709.633 500.549C709.859 500.456 710.101 500.408 710.345 500.408C724.544 502.147 738.903 502.147 753.102 500.408C753.595 500.408 754.069 500.604 754.418 500.951C754.767 501.299 754.963 501.77 754.963 502.262V504.711C754.963 505.202 754.767 505.674 754.418 506.021C754.069 506.369 753.595 506.564 753.102 506.564V506.564Z" fill="#3F3D56"/>
<path d="M730.861 535.008C735.298 535.008 738.895 531.427 738.895 527.008C738.895 522.59 735.298 519.008 730.861 519.008C726.424 519.008 722.827 522.59 722.827 527.008C722.827 531.427 726.424 535.008 730.861 535.008Z" fill="white"/>
<path d="M751.515 543.839C751.759 546.176 751.437 548.537 750.575 550.724C749.713 552.911 748.337 554.861 746.562 556.409C744.787 557.957 742.666 559.059 740.375 559.621C738.084 560.184 735.691 560.192 733.397 559.643L704.681 552.778L705.367 537.522L733.52 531.045C735.557 530.576 737.671 530.544 739.721 530.95C741.772 531.357 743.712 532.193 745.414 533.402C747.115 534.612 748.539 536.168 749.591 537.968C750.643 539.767 751.299 541.768 751.515 543.839V543.839Z" fill="#FFB8B8"/>
<path d="M712.718 555.506L635.22 557.435C632.423 557.505 629.643 556.966 627.076 555.857C624.509 554.748 622.216 553.094 620.356 551.012C618.496 548.93 617.115 546.469 616.308 543.801C615.501 541.133 615.288 538.322 615.684 535.563V535.563C616.304 531.241 618.387 527.259 621.589 524.277L658.077 490.287C664.845 483.983 673.277 479.732 682.385 478.031L695.173 475.644L702.692 532.213L659.249 527.221L710.211 533.045L712.718 555.506Z" fill="#6C63FF"/>
<path d="M610.621 721.501H412.775C411.015 721.501 409.328 720.805 408.084 719.566C406.84 718.327 406.141 716.647 406.141 714.895V714.895C477.86 706.595 548.232 706.595 617.255 714.895C617.255 716.647 616.556 718.327 615.312 719.566C614.068 720.805 612.381 721.501 610.621 721.501Z" fill="#2F2E41"/>
<path d="M617.255 715.284L406.141 714.895L430.608 673.901L430.725 673.706V583.359C430.725 582.262 430.942 581.176 431.363 580.163C431.785 579.15 432.402 578.229 433.181 577.454C433.96 576.679 434.884 576.063 435.902 575.644C436.919 575.224 438.01 575.008 439.111 575.008H583.114C584.215 575.008 585.306 575.224 586.323 575.644C587.341 576.063 588.265 576.679 589.044 577.454C589.823 578.229 590.441 579.15 590.862 580.163C591.283 581.176 591.5 582.262 591.5 583.359V674.328L617.255 715.284Z" fill="#3F3D56"/>
<path d="M438.92 580.837C438.196 580.838 437.502 581.125 436.989 581.635C436.477 582.145 436.189 582.836 436.188 583.557V665.935C436.189 666.656 436.477 667.347 436.989 667.857C437.502 668.367 438.196 668.654 438.92 668.655H584.476C585.2 668.654 585.895 668.367 586.407 667.857C586.919 667.347 587.207 666.656 587.208 665.935V583.557C587.207 582.836 586.919 582.145 586.407 581.635C585.895 581.125 585.2 580.838 584.476 580.837L438.92 580.837Z" fill="white"/>
<path d="M439.877 679.535C439.653 679.535 439.434 679.599 439.246 679.72C439.057 679.84 438.907 680.011 438.813 680.213L431.274 696.534C431.192 696.711 431.156 696.906 431.17 697.102C431.183 697.297 431.246 697.485 431.352 697.65C431.458 697.814 431.603 697.95 431.776 698.044C431.948 698.137 432.141 698.187 432.337 698.187H590.882C591.082 698.187 591.278 698.136 591.453 698.039C591.627 697.942 591.773 697.803 591.878 697.634C591.983 697.465 592.043 697.272 592.052 697.073C592.061 696.875 592.019 696.677 591.929 696.499L583.734 680.179C583.638 679.985 583.488 679.822 583.303 679.708C583.118 679.594 582.905 679.534 582.688 679.535L439.877 679.535Z" fill="#2F2E41"/>
<path d="M511.113 579.477C512.083 579.477 512.869 578.694 512.869 577.728C512.869 576.763 512.083 575.98 511.113 575.98C510.143 575.98 509.357 576.763 509.357 577.728C509.357 578.694 510.143 579.477 511.113 579.477Z" fill="white"/>
<path d="M495.529 701.295C495.272 701.295 495.022 701.38 494.817 701.536C494.613 701.692 494.466 701.91 494.399 702.158L492.508 709.152C492.461 709.325 492.455 709.506 492.49 709.681C492.524 709.857 492.599 710.022 492.709 710.164C492.818 710.306 492.959 710.421 493.12 710.501C493.281 710.58 493.458 710.621 493.638 710.621H529.603C529.79 710.621 529.973 710.577 530.139 710.491C530.305 710.406 530.448 710.283 530.556 710.131C530.665 709.98 530.735 709.805 530.762 709.621C530.788 709.437 530.77 709.249 530.709 709.074L528.278 702.079C528.198 701.85 528.048 701.652 527.85 701.511C527.652 701.371 527.415 701.295 527.171 701.295H495.529Z" fill="#2F2E41"/>
<path d="M591.5 672.346V673.901H430.608L430.729 673.706V672.346H591.5Z" fill="#2F2E41"/>
<path d="M362.44 620.507C362.882 636.95 365.648 653.248 370.656 668.923C370.771 669.286 370.89 669.645 371.01 670.008H401.673C401.641 669.683 401.608 669.319 401.575 668.923C399.531 645.518 387.743 503.072 401.837 478.712C400.605 480.688 360.063 546.14 362.44 620.507Z" fill="#E6E6E6"/>
<path d="M364.74 668.923C364.997 669.286 365.264 669.65 365.536 670.008H388.539C388.364 669.699 388.163 669.335 387.928 668.923C384.128 662.093 372.88 641.674 362.44 620.507C351.219 597.759 340.925 574.149 341.792 565.603C341.525 567.531 333.761 626.283 364.74 668.923Z" fill="#E6E6E6"/>
<path d="M171.781 625C171.781 625 239.858 602.713 303.273 625Z" fill="#E6E6E6"/>
<path d="M476.399 614.441C489.889 614.301 503.378 614.061 516.867 613.878C521.364 613.817 525.862 613.764 530.359 613.718C534.234 613.678 534.244 607.678 530.359 607.718C516.869 607.858 503.38 608.098 489.891 608.281C485.394 608.341 480.897 608.395 476.399 608.441C472.524 608.481 472.514 614.481 476.399 614.441Z" fill="#6C63FF"/>
<path d="M476.399 628.441L530.921 627.878L546.427 627.718C550.302 627.678 550.312 621.678 546.427 621.718L491.905 622.281L476.399 622.441C472.524 622.481 472.514 628.481 476.399 628.441Z" fill="#6C63FF"/>
<path d="M476.399 642.441L530.921 641.878L546.427 641.718C550.302 641.678 550.312 635.678 546.427 635.718L491.905 636.281L476.399 636.441C472.524 636.481 472.514 642.481 476.399 642.441Z" fill="#6C63FF"/>
</g>
<defs>
<clipPath id="clip0">
<rect width="942.76" height="806.748" fill="white"/>
</clipPath>
</defs>
</svg>
